<svg width="46" height="43" viewBox="0 0 46 43" fill="none" xmlns="http://www.w3.org/2000/svg">
<path d="M8.01533 25.0293C6.63504 22.8789 6.63504 20.1211 8.01532 17.9707C8.40441 17.3645 9.02642 16.9458 9.73446 16.8134L13.1206 16.1804C13.3125 16.1445 13.4872 16.0459 13.6171 15.9001L20.2057 8.5095C21.3817 7.19033 21.9697 6.53074 22.4848 6.72703C23 6.92332 23 7.80695 23 9.5742L23 33.4258C23 35.1931 23 36.0767 22.4848 36.273C21.9697 36.4693 21.3817 35.8097 20.2057 34.4905L13.6171 27.0999C13.4872 26.9541 13.3125 26.8555 13.1206 26.8196L9.73446 26.1866C9.02642 26.0542 8.40441 25.6355 8.01533 25.0293Z" fill="#222222"/>
<path d="M27.8598 15.1655C29.6477 16.8369 30.6566 19.1011 30.6666 21.4647C30.6766 23.8284 29.6868 26.0999 27.913 27.7844" stroke="#222222" stroke-width="2" stroke-linecap="round"/>
<path d="M35.7589 11.3648C38.6196 14.039 40.2339 17.6617 40.2498 21.4435C40.2657 25.2254 38.6821 28.8599 35.844 31.555" stroke="#222222" stroke-width="2" stroke-linecap="round"/>
</svg>
